<svg xmlns="http://www.w3.org/2000/svg" version="1.1" xmlns:xlink="http://www.w3.org/1999/xlink" xmlns:svgjs="http://svgjs.dev/svgjs" width="1920" height="1080" preserveAspectRatio="none" viewBox="0 0 1920 1080"><g mask="url(&quot;#SvgjsMask1081&quot;)" fill="none"><path d="M95.019,252.795C150.339,255.805,199.601,219.369,226.845,171.129C253.628,123.706,256.347,64.715,227.238,18.682C199.819,-24.679,146.31,-36.22,95.019,-37.341C41.035,-38.521,-21.272,-34.466,-47.604,12.676C-73.59,59.199,-41.316,112.204,-14.103,158.02C12.267,202.416,43.458,249.99,95.019,252.795" fill="rgba(255, 71, 4, 1)" class="triangle-float1"></path><path d="M285.358,592.02C392.026,587.011,483.317,522.956,536.917,430.596C590.749,337.837,609.775,221.822,553,130.835C498.735,43.872,387.82,30.413,285.358,27.452C175.222,24.269,52.11,23.879,-10.492,114.549C-79.866,215.027,-75.057,352.522,-10.746,456.314C50.546,555.233,169.117,597.479,285.358,592.02" fill="rgba(255, 71, 4, 1)" class="triangle-float2"></path><path d="M36.252,131.186C67.532,130.319,86.93,101.622,103.512,75.085C121.662,46.037,145.475,12.732,129.049,-17.325C112.304,-47.965,71.106,-50.09,36.252,-47.992C5.721,-46.154,-23.614,-33.629,-39.02,-7.206C-54.536,19.404,-52.513,51.943,-37.795,79.003C-22.332,107.434,3.9,132.083,36.252,131.186" fill="rgba(255, 71, 4, 1)" class="triangle-float1"></path><path d="M1829.11,290.145C1886.749,288.844,1934.309,252.345,1965.466,203.835C2000.007,150.057,2026.72,84.729,1997.584,27.841C1966.458,-32.933,1897.385,-63.297,1829.11,-62.401C1762.412,-61.526,1699.853,-26.51,1668.121,32.163C1637.767,88.287,1647.875,156.112,1681.654,210.243C1713.375,261.075,1769.207,291.498,1829.11,290.145" fill="rgba(255, 71, 4, 1)" class="triangle-float1"></path><path d="M1822.821,286.984C1880.102,287.365,1927.857,245.506,1953.718,194.394C1977.164,148.055,1967.783,95.074,1943.018,49.426C1916.778,1.059,1877.761,-43.797,1822.821,-46.879C1763.18,-50.224,1704.894,-18.203,1676.758,34.491C1649.965,84.669,1666.427,143.433,1694.91,192.671C1723.34,241.817,1766.045,286.606,1822.821,286.984" fill="rgba(255, 71, 4, 1)" class="triangle-float1"></path><path d="M1796.209,245.346C1851.69,244.679,1908.297,220.825,1932.508,170.901C1954.67,125.201,1924.401,76.844,1899.354,32.659C1873.772,-12.469,1848.007,-66.721,1796.209,-69.54C1741.414,-72.522,1699.229,-27.147,1671.596,20.264C1643.716,68.098,1627.301,125.808,1654.118,174.246C1681.613,223.908,1739.448,246.028,1796.209,245.346" fill="rgba(255, 71, 4, 1)" class="triangle-float3"></path><path d="M27.23,981.937C59.5,982.322,88.903,964.101,105.128,936.204C121.445,908.149,123.268,873.255,106.656,845.374C90.401,818.093,58.985,805.678,27.23,805.467C-4.951,805.253,-37.903,816.465,-54.045,844.306C-70.229,872.22,-63.921,906.601,-47.514,934.384C-31.42,961.637,-4.418,981.559,27.23,981.937" fill="rgba(255, 71, 4, 1)" class="triangle-float2"></path><path d="M124.849,1143.712C183.9,1146.822,247.303,1127.817,275.907,1076.062C303.866,1025.474,282.111,964.697,250.546,916.277C222.29,872.933,176.541,846.585,124.849,844.343C68.451,841.897,7.033,855.644,-21.266,904.489C-49.617,953.424,-30.432,1013.216,-0.953,1061.48C27.036,1107.304,71.228,1140.888,124.849,1143.712" fill="rgba(255, 71, 4, 1)" class="triangle-float1"></path><path d="M200.943,1270.565C275.021,1266.74,345.862,1234.261,382.436,1169.728C418.54,1106.024,411.901,1027.684,374.156,964.938C337.603,904.174,271.807,870.609,200.943,868.022C124.695,865.238,46.974,888.158,4.341,951.435C-43.521,1022.473,-61.128,1117.381,-16.2,1190.31C27.181,1260.727,118.346,1274.83,200.943,1270.565" fill="rgba(255, 71, 4, 1)" class="triangle-float2"></path><path d="M1823.42,1159.057C1880.977,1154.432,1918.836,1105.173,1946.799,1054.653C1973.608,1006.218,1991.428,950.257,1966.295,900.931C1939.042,847.444,1883.419,814.42,1823.42,812.503C1759.861,810.472,1697.141,837.114,1663.801,891.264C1628.875,947.989,1626.039,1020.465,1660.146,1077.686C1693.516,1133.67,1758.454,1164.277,1823.42,1159.057" fill="rgba(255, 71, 4, 1)" class="triangle-float3"></path><path d="M1796.732,1075.732C1848.798,1077.717,1909.855,1082.164,1937.627,1038.078C1966.408,992.391,1942.759,934.752,1914.547,888.711C1887.905,845.233,1847.704,809.56,1796.732,808.145C1743.454,806.666,1693.112,835.366,1667.018,881.841C1641.43,927.415,1644.228,984.56,1673.29,1028.001C1699.582,1067.3,1749.483,1073.931,1796.732,1075.732" fill="rgba(255, 71, 4, 1)" class="triangle-float1"></path><path d="M1943.558,1329.135C2029.859,1330.997,2121.325,1305.866,2164.364,1231.04C2207.313,1156.372,2183.151,1064.648,2137.822,991.4C2095.172,922.481,2024.578,876.413,1943.558,874.239C1858.488,871.956,1773.57,907.154,1730.357,980.467C1686.539,1054.805,1693.644,1148.238,1738.66,1221.857C1781.766,1292.352,1860.947,1327.353,1943.558,1329.135" fill="rgba(255, 71, 4, 1)" class="triangle-float1"></path></g><defs><mask id="SvgjsMask1081"><rect width="1920" height="1080" fill="#ffffff"></rect></mask></defs></svg>